<mxfile host="app.diagrams.net" modified="2024-07-01T16:30:07.829Z" agent="Mozilla/5.0 (Windows NT 10.0; Win64; x64) AppleWebKit/537.36 (KHTML, like Gecko) Chrome/123.0.0.0 Safari/537.36 OPR/109.0.0.0 (Edition std-1)" etag="1-tkYQX3HdkaAvI40YrF" version="24.6.4" type="device">
  <diagram name="Page-1" id="0783ab3e-0a74-02c8-0abd-f7b4e66b4bec">
    <mxGraphModel dx="361" dy="655" grid="1" gridSize="10" guides="1" tooltips="1" connect="1" arrows="1" fold="1" page="1" pageScale="1" pageWidth="850" pageHeight="1100" background="none" math="0" shadow="0">
      <root>
        <mxCell id="0" />
        <mxCell id="1" parent="0" />
        <mxCell id="I2eKmvmDZ-53v4QzpKvG-11" value="Classification Models" style="swimlane;html=1;startSize=20;" parent="1" vertex="1">
          <mxGeometry x="1280" y="100" width="290" height="580" as="geometry" />
        </mxCell>
        <mxCell id="I2eKmvmDZ-53v4QzpKvG-96" style="rounded=0;orthogonalLoop=1;jettySize=auto;html=1;" parent="I2eKmvmDZ-53v4QzpKvG-11" source="I2eKmvmDZ-53v4QzpKvG-40" target="I2eKmvmDZ-53v4QzpKvG-95" edge="1">
          <mxGeometry relative="1" as="geometry" />
        </mxCell>
        <mxCell id="I2eKmvmDZ-53v4QzpKvG-97" style="rounded=0;orthogonalLoop=1;jettySize=auto;html=1;" parent="I2eKmvmDZ-53v4QzpKvG-11" source="I2eKmvmDZ-53v4QzpKvG-40" target="I2eKmvmDZ-53v4QzpKvG-55" edge="1">
          <mxGeometry relative="1" as="geometry" />
        </mxCell>
        <mxCell id="I2eKmvmDZ-53v4QzpKvG-40" value="Data Loading and Preprocessing" style="rounded=1;whiteSpace=wrap;html=1;shadow=0;comic=0;labelBackgroundColor=none;strokeWidth=1;fontFamily=Verdana;fontSize=12;align=center;arcSize=50;" parent="I2eKmvmDZ-53v4QzpKvG-11" vertex="1">
          <mxGeometry x="49" y="60" width="120" height="40" as="geometry" />
        </mxCell>
        <mxCell id="I2eKmvmDZ-53v4QzpKvG-47" style="edgeStyle=orthogonalEdgeStyle;rounded=0;orthogonalLoop=1;jettySize=auto;html=1;" parent="I2eKmvmDZ-53v4QzpKvG-11" source="I2eKmvmDZ-53v4QzpKvG-42" target="I2eKmvmDZ-53v4QzpKvG-44" edge="1">
          <mxGeometry relative="1" as="geometry" />
        </mxCell>
        <mxCell id="I2eKmvmDZ-53v4QzpKvG-42" value="Feature Selection" style="rounded=1;whiteSpace=wrap;html=1;shadow=0;comic=0;labelBackgroundColor=none;strokeWidth=1;fontFamily=Verdana;fontSize=12;align=center;arcSize=50;" parent="I2eKmvmDZ-53v4QzpKvG-11" vertex="1">
          <mxGeometry x="49" y="260" width="120" height="40" as="geometry" />
        </mxCell>
        <mxCell id="I2eKmvmDZ-53v4QzpKvG-99" style="edgeStyle=orthogonalEdgeStyle;rounded=0;orthogonalLoop=1;jettySize=auto;html=1;" parent="I2eKmvmDZ-53v4QzpKvG-11" source="I2eKmvmDZ-53v4QzpKvG-44" target="I2eKmvmDZ-53v4QzpKvG-54" edge="1">
          <mxGeometry relative="1" as="geometry" />
        </mxCell>
        <mxCell id="I2eKmvmDZ-53v4QzpKvG-44" value="Model Selection and Training" style="rounded=1;whiteSpace=wrap;html=1;shadow=0;comic=0;labelBackgroundColor=none;strokeWidth=1;fontFamily=Verdana;fontSize=12;align=center;arcSize=50;" parent="I2eKmvmDZ-53v4QzpKvG-11" vertex="1">
          <mxGeometry x="49" y="342" width="120" height="40" as="geometry" />
        </mxCell>
        <mxCell id="I2eKmvmDZ-53v4QzpKvG-54" value="Classification Models" style="rounded=0;whiteSpace=wrap;html=1;shadow=0;comic=0;labelBackgroundColor=none;strokeWidth=1;fontFamily=Verdana;fontSize=12;align=center;arcSize=50;" parent="I2eKmvmDZ-53v4QzpKvG-11" vertex="1">
          <mxGeometry x="64" y="420" width="90" height="40" as="geometry" />
        </mxCell>
        <mxCell id="I2eKmvmDZ-53v4QzpKvG-55" value="Data Scalers" style="rounded=0;whiteSpace=wrap;html=1;shadow=0;comic=0;labelBackgroundColor=none;strokeWidth=1;fontFamily=Verdana;fontSize=12;align=center;arcSize=50;" parent="I2eKmvmDZ-53v4QzpKvG-11" vertex="1">
          <mxGeometry x="121" y="140" width="90" height="40" as="geometry" />
        </mxCell>
        <mxCell id="I2eKmvmDZ-53v4QzpKvG-75" value="Model Biasing" style="rounded=1;whiteSpace=wrap;html=1;shadow=0;comic=0;labelBackgroundColor=none;strokeWidth=1;fontFamily=Verdana;fontSize=12;align=center;arcSize=50;" parent="I2eKmvmDZ-53v4QzpKvG-11" vertex="1">
          <mxGeometry x="49" y="500" width="120" height="40" as="geometry" />
        </mxCell>
        <mxCell id="I2eKmvmDZ-53v4QzpKvG-76" style="rounded=0;orthogonalLoop=1;jettySize=auto;html=1;" parent="I2eKmvmDZ-53v4QzpKvG-11" source="I2eKmvmDZ-53v4QzpKvG-54" target="I2eKmvmDZ-53v4QzpKvG-75" edge="1">
          <mxGeometry relative="1" as="geometry">
            <mxPoint x="102" y="392" as="sourcePoint" />
            <mxPoint x="69" y="430" as="targetPoint" />
          </mxGeometry>
        </mxCell>
        <mxCell id="5McXWvS48t8TQqjpAbrh-6" style="edgeStyle=orthogonalEdgeStyle;rounded=0;orthogonalLoop=1;jettySize=auto;html=1;entryX=0.5;entryY=0;entryDx=0;entryDy=0;" edge="1" parent="I2eKmvmDZ-53v4QzpKvG-11" source="I2eKmvmDZ-53v4QzpKvG-95" target="5McXWvS48t8TQqjpAbrh-5">
          <mxGeometry relative="1" as="geometry" />
        </mxCell>
        <mxCell id="I2eKmvmDZ-53v4QzpKvG-95" value="Database" style="rounded=0;whiteSpace=wrap;html=1;shadow=0;comic=0;labelBackgroundColor=none;strokeWidth=1;fontFamily=Verdana;fontSize=12;align=center;arcSize=50;" parent="I2eKmvmDZ-53v4QzpKvG-11" vertex="1">
          <mxGeometry x="11" y="140" width="90" height="40" as="geometry" />
        </mxCell>
        <mxCell id="I2eKmvmDZ-53v4QzpKvG-100" value="Adapt the Models to their User" style="shape=note;whiteSpace=wrap;html=1;rounded=0;shadow=0;comic=0;labelBackgroundColor=none;strokeWidth=1;fontFamily=Verdana;fontSize=12;align=center;size=20;" parent="I2eKmvmDZ-53v4QzpKvG-11" vertex="1">
          <mxGeometry x="169" y="430" width="105" height="70" as="geometry" />
        </mxCell>
        <mxCell id="I2eKmvmDZ-53v4QzpKvG-101" style="edgeStyle=none;rounded=0;html=1;dashed=1;labelBackgroundColor=none;startArrow=none;startFill=0;startSize=5;endArrow=oval;endFill=0;endSize=5;jettySize=auto;orthogonalLoop=1;strokeWidth=1;fontFamily=Verdana;fontSize=12;entryX=1;entryY=0.5;entryDx=0;entryDy=0;exitX=0.5;exitY=1;exitDx=0;exitDy=0;exitPerimeter=0;" parent="I2eKmvmDZ-53v4QzpKvG-11" source="I2eKmvmDZ-53v4QzpKvG-100" target="I2eKmvmDZ-53v4QzpKvG-75" edge="1">
          <mxGeometry relative="1" as="geometry">
            <mxPoint x="-89" y="430" as="sourcePoint" />
            <mxPoint x="-89" y="390" as="targetPoint" />
          </mxGeometry>
        </mxCell>
        <mxCell id="5McXWvS48t8TQqjpAbrh-7" style="rounded=0;orthogonalLoop=1;jettySize=auto;html=1;exitX=0.25;exitY=0;exitDx=0;exitDy=0;" edge="1" parent="I2eKmvmDZ-53v4QzpKvG-11" source="5McXWvS48t8TQqjpAbrh-5" target="I2eKmvmDZ-53v4QzpKvG-42">
          <mxGeometry relative="1" as="geometry">
            <mxPoint x="42" y="230" as="sourcePoint" />
          </mxGeometry>
        </mxCell>
        <mxCell id="5McXWvS48t8TQqjpAbrh-5" value="" style="whiteSpace=wrap;html=1;rounded=0;shadow=0;comic=0;labelBackgroundColor=none;strokeWidth=1;fillColor=#000000;fontFamily=Verdana;fontSize=12;align=center;rotation=0;" vertex="1" parent="I2eKmvmDZ-53v4QzpKvG-11">
          <mxGeometry x="12" y="209" width="89" height="10" as="geometry" />
        </mxCell>
        <mxCell id="5McXWvS48t8TQqjpAbrh-9" style="edgeStyle=orthogonalEdgeStyle;rounded=0;orthogonalLoop=1;jettySize=auto;html=1;exitX=0.25;exitY=1;exitDx=0;exitDy=0;entryX=0.25;entryY=0;entryDx=0;entryDy=0;" edge="1" parent="I2eKmvmDZ-53v4QzpKvG-11" source="5McXWvS48t8TQqjpAbrh-5" target="5McXWvS48t8TQqjpAbrh-5">
          <mxGeometry relative="1" as="geometry" />
        </mxCell>
        <mxCell id="5McXWvS48t8TQqjpAbrh-12" value="Saved Settings to Normalize Later Data the Same Way" style="shape=note;whiteSpace=wrap;html=1;rounded=0;shadow=0;comic=0;labelBackgroundColor=none;strokeWidth=1;fontFamily=Verdana;fontSize=12;align=center;size=20;" vertex="1" parent="I2eKmvmDZ-53v4QzpKvG-11">
          <mxGeometry x="176" y="240" width="105" height="100" as="geometry" />
        </mxCell>
        <mxCell id="5McXWvS48t8TQqjpAbrh-13" style="edgeStyle=none;rounded=0;html=1;dashed=1;labelBackgroundColor=none;startArrow=none;startFill=0;startSize=5;endArrow=oval;endFill=0;endSize=5;jettySize=auto;orthogonalLoop=1;strokeWidth=1;fontFamily=Verdana;fontSize=12;" edge="1" parent="I2eKmvmDZ-53v4QzpKvG-11" source="5McXWvS48t8TQqjpAbrh-12" target="I2eKmvmDZ-53v4QzpKvG-55">
          <mxGeometry relative="1" as="geometry">
            <mxPoint x="232" y="510" as="sourcePoint" />
            <mxPoint x="179" y="530" as="targetPoint" />
          </mxGeometry>
        </mxCell>
        <mxCell id="I2eKmvmDZ-53v4QzpKvG-58" value="Preparation" style="swimlane;html=1;startSize=20;" parent="1" vertex="1">
          <mxGeometry x="990" y="100" width="290" height="580" as="geometry" />
        </mxCell>
        <mxCell id="5McXWvS48t8TQqjpAbrh-4" style="edgeStyle=orthogonalEdgeStyle;rounded=0;orthogonalLoop=1;jettySize=auto;html=1;entryX=0.5;entryY=0;entryDx=0;entryDy=0;" edge="1" parent="I2eKmvmDZ-53v4QzpKvG-58" source="I2eKmvmDZ-53v4QzpKvG-5" target="5McXWvS48t8TQqjpAbrh-1">
          <mxGeometry relative="1" as="geometry" />
        </mxCell>
        <mxCell id="I2eKmvmDZ-53v4QzpKvG-5" value="Database" style="rounded=0;whiteSpace=wrap;html=1;shadow=0;comic=0;labelBackgroundColor=none;strokeWidth=1;fontFamily=Verdana;fontSize=12;align=center;arcSize=50;" parent="I2eKmvmDZ-53v4QzpKvG-58" vertex="1">
          <mxGeometry x="151" y="220" width="80" height="40" as="geometry" />
        </mxCell>
        <mxCell id="I2eKmvmDZ-53v4QzpKvG-9" value="Compare with Original LiveRef" style="rounded=1;whiteSpace=wrap;html=1;shadow=0;comic=0;labelBackgroundColor=none;strokeWidth=1;fontFamily=Verdana;fontSize=12;align=center;arcSize=50;" parent="I2eKmvmDZ-53v4QzpKvG-58" vertex="1">
          <mxGeometry x="77.5" y="330" width="120" height="40" as="geometry" />
        </mxCell>
        <mxCell id="I2eKmvmDZ-53v4QzpKvG-86" style="edgeStyle=orthogonalEdgeStyle;rounded=0;orthogonalLoop=1;jettySize=auto;html=1;entryX=0.5;entryY=0;entryDx=0;entryDy=0;" parent="I2eKmvmDZ-53v4QzpKvG-58" source="I2eKmvmDZ-53v4QzpKvG-2" target="I2eKmvmDZ-53v4QzpKvG-5" edge="1">
          <mxGeometry relative="1" as="geometry" />
        </mxCell>
        <mxCell id="I2eKmvmDZ-53v4QzpKvG-2" value="Data Collection" style="rounded=1;whiteSpace=wrap;html=1;shadow=0;comic=0;labelBackgroundColor=none;strokeWidth=1;fontFamily=Verdana;fontSize=12;align=center;arcSize=50;" parent="I2eKmvmDZ-53v4QzpKvG-58" vertex="1">
          <mxGeometry x="131" y="140" width="120" height="40" as="geometry" />
        </mxCell>
        <mxCell id="I2eKmvmDZ-53v4QzpKvG-1" value="" style="ellipse;whiteSpace=wrap;html=1;rounded=0;shadow=0;comic=0;labelBackgroundColor=none;strokeWidth=1;fillColor=#000000;fontFamily=Verdana;fontSize=12;align=center;" parent="I2eKmvmDZ-53v4QzpKvG-58" vertex="1">
          <mxGeometry x="171" y="60" width="40" height="40" as="geometry" />
        </mxCell>
        <mxCell id="I2eKmvmDZ-53v4QzpKvG-7" style="rounded=0;orthogonalLoop=1;jettySize=auto;html=1;" parent="I2eKmvmDZ-53v4QzpKvG-58" source="I2eKmvmDZ-53v4QzpKvG-1" target="I2eKmvmDZ-53v4QzpKvG-2" edge="1">
          <mxGeometry relative="1" as="geometry">
            <mxPoint x="61" y="90.5" as="sourcePoint" />
            <mxPoint x="101" y="90.5" as="targetPoint" />
          </mxGeometry>
        </mxCell>
        <mxCell id="I2eKmvmDZ-53v4QzpKvG-89" value="Real-Life Instances of Refactoring Data" style="shape=note;whiteSpace=wrap;html=1;rounded=0;shadow=0;comic=0;labelBackgroundColor=none;strokeWidth=1;fontFamily=Verdana;fontSize=12;align=center;size=20;" parent="I2eKmvmDZ-53v4QzpKvG-58" vertex="1">
          <mxGeometry x="21" y="60" width="110" height="70" as="geometry" />
        </mxCell>
        <mxCell id="I2eKmvmDZ-53v4QzpKvG-90" style="edgeStyle=none;rounded=0;html=1;dashed=1;labelBackgroundColor=none;startArrow=none;startFill=0;startSize=5;endArrow=oval;endFill=0;endSize=5;jettySize=auto;orthogonalLoop=1;strokeWidth=1;fontFamily=Verdana;fontSize=12;entryX=0;entryY=0.5;entryDx=0;entryDy=0;" parent="I2eKmvmDZ-53v4QzpKvG-58" source="I2eKmvmDZ-53v4QzpKvG-89" target="I2eKmvmDZ-53v4QzpKvG-2" edge="1">
          <mxGeometry relative="1" as="geometry">
            <mxPoint x="-285" y="365" as="sourcePoint" />
            <mxPoint x="-301" y="310" as="targetPoint" />
          </mxGeometry>
        </mxCell>
        <mxCell id="I2eKmvmDZ-53v4QzpKvG-92" value="Answer RQ1" style="shape=note;whiteSpace=wrap;html=1;rounded=0;shadow=0;comic=0;labelBackgroundColor=none;strokeWidth=1;fontFamily=Verdana;fontSize=12;align=center;size=20;" parent="I2eKmvmDZ-53v4QzpKvG-58" vertex="1">
          <mxGeometry x="50" y="410" width="105" height="60" as="geometry" />
        </mxCell>
        <mxCell id="I2eKmvmDZ-53v4QzpKvG-93" style="edgeStyle=none;rounded=0;html=1;dashed=1;labelBackgroundColor=none;startArrow=none;startFill=0;startSize=5;endArrow=oval;endFill=0;endSize=5;jettySize=auto;orthogonalLoop=1;strokeWidth=1;fontFamily=Verdana;fontSize=12;entryX=0.5;entryY=1;entryDx=0;entryDy=0;exitX=0.5;exitY=0;exitDx=0;exitDy=0;exitPerimeter=0;" parent="I2eKmvmDZ-53v4QzpKvG-58" source="I2eKmvmDZ-53v4QzpKvG-92" target="I2eKmvmDZ-53v4QzpKvG-9" edge="1">
          <mxGeometry relative="1" as="geometry">
            <mxPoint x="75" y="290" as="sourcePoint" />
            <mxPoint x="141" y="260" as="targetPoint" />
          </mxGeometry>
        </mxCell>
        <mxCell id="5McXWvS48t8TQqjpAbrh-3" style="rounded=0;orthogonalLoop=1;jettySize=auto;html=1;" edge="1" parent="I2eKmvmDZ-53v4QzpKvG-58" source="5McXWvS48t8TQqjpAbrh-1" target="I2eKmvmDZ-53v4QzpKvG-9">
          <mxGeometry relative="1" as="geometry" />
        </mxCell>
        <mxCell id="5McXWvS48t8TQqjpAbrh-1" value="" style="whiteSpace=wrap;html=1;rounded=0;shadow=0;comic=0;labelBackgroundColor=none;strokeWidth=1;fillColor=#000000;fontFamily=Verdana;fontSize=12;align=center;rotation=0;" vertex="1" parent="I2eKmvmDZ-53v4QzpKvG-58">
          <mxGeometry x="117.5" y="290" width="147" height="10" as="geometry" />
        </mxCell>
        <mxCell id="5McXWvS48t8TQqjpAbrh-10" value="Metrics of Before and After Refactorings" style="shape=note;whiteSpace=wrap;html=1;rounded=0;shadow=0;comic=0;labelBackgroundColor=none;strokeWidth=1;fontFamily=Verdana;fontSize=12;align=center;size=20;" vertex="1" parent="I2eKmvmDZ-53v4QzpKvG-58">
          <mxGeometry x="20" y="200" width="111" height="80" as="geometry" />
        </mxCell>
        <mxCell id="5McXWvS48t8TQqjpAbrh-11" style="edgeStyle=none;rounded=0;html=1;dashed=1;labelBackgroundColor=none;startArrow=none;startFill=0;startSize=5;endArrow=oval;endFill=0;endSize=5;jettySize=auto;orthogonalLoop=1;strokeWidth=1;fontFamily=Verdana;fontSize=12;entryX=0;entryY=0.5;entryDx=0;entryDy=0;" edge="1" parent="I2eKmvmDZ-53v4QzpKvG-58" source="5McXWvS48t8TQqjpAbrh-10" target="I2eKmvmDZ-53v4QzpKvG-5">
          <mxGeometry relative="1" as="geometry">
            <mxPoint x="116" y="140" as="sourcePoint" />
            <mxPoint x="141" y="170" as="targetPoint" />
          </mxGeometry>
        </mxCell>
        <mxCell id="I2eKmvmDZ-53v4QzpKvG-70" value="Plugin" style="swimlane;html=1;startSize=20;" parent="1" vertex="1">
          <mxGeometry x="1570" y="100" width="290" height="580" as="geometry" />
        </mxCell>
        <mxCell id="I2eKmvmDZ-53v4QzpKvG-74" style="edgeStyle=orthogonalEdgeStyle;rounded=0;orthogonalLoop=1;jettySize=auto;html=1;" parent="I2eKmvmDZ-53v4QzpKvG-70" source="I2eKmvmDZ-53v4QzpKvG-57" target="I2eKmvmDZ-53v4QzpKvG-73" edge="1">
          <mxGeometry relative="1" as="geometry" />
        </mxCell>
        <mxCell id="I2eKmvmDZ-53v4QzpKvG-57" value="Model Integration" style="rounded=1;whiteSpace=wrap;html=1;shadow=0;comic=0;labelBackgroundColor=none;strokeWidth=1;fontFamily=Verdana;fontSize=12;align=center;arcSize=50;" parent="I2eKmvmDZ-53v4QzpKvG-70" vertex="1">
          <mxGeometry x="44" y="139" width="120" height="40" as="geometry" />
        </mxCell>
        <mxCell id="I2eKmvmDZ-53v4QzpKvG-80" style="edgeStyle=orthogonalEdgeStyle;rounded=0;orthogonalLoop=1;jettySize=auto;html=1;" parent="I2eKmvmDZ-53v4QzpKvG-70" source="I2eKmvmDZ-53v4QzpKvG-73" target="I2eKmvmDZ-53v4QzpKvG-78" edge="1">
          <mxGeometry relative="1" as="geometry" />
        </mxCell>
        <mxCell id="I2eKmvmDZ-53v4QzpKvG-73" value="Configuration&amp;nbsp; Panel Add-ons" style="rounded=1;whiteSpace=wrap;html=1;shadow=0;comic=0;labelBackgroundColor=none;strokeWidth=1;fontFamily=Verdana;fontSize=12;align=center;arcSize=50;" parent="I2eKmvmDZ-53v4QzpKvG-70" vertex="1">
          <mxGeometry x="44" y="219" width="120" height="40" as="geometry" />
        </mxCell>
        <mxCell id="I2eKmvmDZ-53v4QzpKvG-84" style="edgeStyle=orthogonalEdgeStyle;rounded=0;orthogonalLoop=1;jettySize=auto;html=1;" parent="I2eKmvmDZ-53v4QzpKvG-70" source="I2eKmvmDZ-53v4QzpKvG-78" target="I2eKmvmDZ-53v4QzpKvG-83" edge="1">
          <mxGeometry relative="1" as="geometry" />
        </mxCell>
        <mxCell id="I2eKmvmDZ-53v4QzpKvG-78" value="Model Update Script" style="rounded=1;whiteSpace=wrap;html=1;shadow=0;comic=0;labelBackgroundColor=none;strokeWidth=1;fontFamily=Verdana;fontSize=12;align=center;arcSize=50;" parent="I2eKmvmDZ-53v4QzpKvG-70" vertex="1">
          <mxGeometry x="44" y="299" width="120" height="40" as="geometry" />
        </mxCell>
        <mxCell id="I2eKmvmDZ-53v4QzpKvG-88" style="edgeStyle=orthogonalEdgeStyle;rounded=0;orthogonalLoop=1;jettySize=auto;html=1;" parent="I2eKmvmDZ-53v4QzpKvG-70" source="I2eKmvmDZ-53v4QzpKvG-83" target="I2eKmvmDZ-53v4QzpKvG-87" edge="1">
          <mxGeometry relative="1" as="geometry" />
        </mxCell>
        <mxCell id="I2eKmvmDZ-53v4QzpKvG-83" value="Repository&amp;nbsp; &amp;nbsp;Metrics Extraction" style="rounded=1;whiteSpace=wrap;html=1;shadow=0;comic=0;labelBackgroundColor=none;strokeWidth=1;fontFamily=Verdana;fontSize=12;align=center;arcSize=50;" parent="I2eKmvmDZ-53v4QzpKvG-70" vertex="1">
          <mxGeometry x="44" y="379" width="120" height="40" as="geometry" />
        </mxCell>
        <mxCell id="I2eKmvmDZ-53v4QzpKvG-87" value="" style="shape=mxgraph.bpmn.shape;html=1;verticalLabelPosition=bottom;labelBackgroundColor=#ffffff;verticalAlign=top;perimeter=ellipsePerimeter;outline=end;symbol=terminate;rounded=0;shadow=0;comic=0;strokeWidth=1;fontFamily=Verdana;fontSize=12;align=center;" parent="I2eKmvmDZ-53v4QzpKvG-70" vertex="1">
          <mxGeometry x="84" y="459" width="40" height="40" as="geometry" />
        </mxCell>
        <mxCell id="I2eKmvmDZ-53v4QzpKvG-102" value="Extract Metrics from User Provided&lt;div&gt;Software Repositories&lt;/div&gt;" style="shape=note;whiteSpace=wrap;html=1;rounded=0;shadow=0;comic=0;labelBackgroundColor=none;strokeWidth=1;fontFamily=Verdana;fontSize=12;align=center;size=20;" parent="I2eKmvmDZ-53v4QzpKvG-70" vertex="1">
          <mxGeometry x="164" y="429" width="105" height="111" as="geometry" />
        </mxCell>
        <mxCell id="I2eKmvmDZ-53v4QzpKvG-103" style="edgeStyle=none;rounded=0;html=1;dashed=1;labelBackgroundColor=none;startArrow=none;startFill=0;startSize=5;endArrow=oval;endFill=0;endSize=5;jettySize=auto;orthogonalLoop=1;strokeWidth=1;fontFamily=Verdana;fontSize=12;entryX=1;entryY=0.5;entryDx=0;entryDy=0;exitX=0;exitY=0;exitDx=42.5;exitDy=0;exitPerimeter=0;" parent="I2eKmvmDZ-53v4QzpKvG-70" source="I2eKmvmDZ-53v4QzpKvG-102" target="I2eKmvmDZ-53v4QzpKvG-83" edge="1">
          <mxGeometry relative="1" as="geometry">
            <mxPoint x="-58" y="549" as="sourcePoint" />
            <mxPoint x="-111" y="569" as="targetPoint" />
          </mxGeometry>
        </mxCell>
        <mxCell id="I2eKmvmDZ-53v4QzpKvG-104" value="Customizable Options &amp;amp; Python Settings" style="shape=note;whiteSpace=wrap;html=1;rounded=0;shadow=0;comic=0;labelBackgroundColor=none;strokeWidth=1;fontFamily=Verdana;fontSize=12;align=center;size=20;" parent="I2eKmvmDZ-53v4QzpKvG-70" vertex="1">
          <mxGeometry x="180" y="219" width="90" height="101" as="geometry" />
        </mxCell>
        <mxCell id="I2eKmvmDZ-53v4QzpKvG-105" style="edgeStyle=none;rounded=0;html=1;dashed=1;labelBackgroundColor=none;startArrow=none;startFill=0;startSize=5;endArrow=oval;endFill=0;endSize=5;jettySize=auto;orthogonalLoop=1;strokeWidth=1;fontFamily=Verdana;fontSize=12;entryX=1;entryY=0.5;entryDx=0;entryDy=0;exitX=0;exitY=0.5;exitDx=0;exitDy=0;exitPerimeter=0;" parent="I2eKmvmDZ-53v4QzpKvG-70" source="I2eKmvmDZ-53v4QzpKvG-104" target="I2eKmvmDZ-53v4QzpKvG-73" edge="1">
          <mxGeometry relative="1" as="geometry">
            <mxPoint x="217" y="469" as="sourcePoint" />
            <mxPoint x="174" y="409" as="targetPoint" />
          </mxGeometry>
        </mxCell>
        <mxCell id="I2eKmvmDZ-53v4QzpKvG-107" style="edgeStyle=orthogonalEdgeStyle;rounded=0;orthogonalLoop=1;jettySize=auto;html=1;" parent="I2eKmvmDZ-53v4QzpKvG-70" source="I2eKmvmDZ-53v4QzpKvG-106" target="I2eKmvmDZ-53v4QzpKvG-57" edge="1">
          <mxGeometry relative="1" as="geometry" />
        </mxCell>
        <mxCell id="I2eKmvmDZ-53v4QzpKvG-106" value="" style="whiteSpace=wrap;html=1;rounded=0;shadow=0;comic=0;labelBackgroundColor=none;strokeWidth=1;fillColor=#000000;fontFamily=Verdana;fontSize=12;align=center;rotation=0;" parent="I2eKmvmDZ-53v4QzpKvG-70" vertex="1">
          <mxGeometry x="30" y="89" width="147" height="10" as="geometry" />
        </mxCell>
        <mxCell id="I2eKmvmDZ-53v4QzpKvG-111" style="edgeStyle=orthogonalEdgeStyle;rounded=0;orthogonalLoop=1;jettySize=auto;html=1;entryX=0.25;entryY=0;entryDx=0;entryDy=0;" parent="1" edge="1">
          <mxGeometry relative="1" as="geometry">
            <Array as="points">
              <mxPoint x="1591" y="620" />
              <mxPoint x="1591" y="170" />
              <mxPoint x="1638" y="170" />
            </Array>
            <mxPoint x="1450" y="620.0526315789473" as="sourcePoint" />
            <mxPoint x="1637.7499999999998" y="189" as="targetPoint" />
          </mxGeometry>
        </mxCell>
        <mxCell id="I2eKmvmDZ-53v4QzpKvG-112" style="edgeStyle=orthogonalEdgeStyle;rounded=0;orthogonalLoop=1;jettySize=auto;html=1;entryX=0.75;entryY=0;entryDx=0;entryDy=0;" parent="1" source="I2eKmvmDZ-53v4QzpKvG-55" target="I2eKmvmDZ-53v4QzpKvG-106" edge="1">
          <mxGeometry relative="1" as="geometry">
            <Array as="points">
              <mxPoint x="1520" y="260" />
              <mxPoint x="1520" y="130" />
              <mxPoint x="1710" y="130" />
            </Array>
          </mxGeometry>
        </mxCell>
        <mxCell id="5McXWvS48t8TQqjpAbrh-2" style="edgeStyle=orthogonalEdgeStyle;rounded=0;orthogonalLoop=1;jettySize=auto;html=1;" edge="1" parent="1" source="5McXWvS48t8TQqjpAbrh-1" target="I2eKmvmDZ-53v4QzpKvG-40">
          <mxGeometry relative="1" as="geometry">
            <Array as="points">
              <mxPoint x="1200" y="430" />
              <mxPoint x="1270" y="430" />
              <mxPoint x="1270" y="180" />
            </Array>
          </mxGeometry>
        </mxCell>
        <mxCell id="5McXWvS48t8TQqjpAbrh-8" style="edgeStyle=orthogonalEdgeStyle;rounded=0;orthogonalLoop=1;jettySize=auto;html=1;exitX=0.75;exitY=1;exitDx=0;exitDy=0;entryX=0.5;entryY=0;entryDx=0;entryDy=0;" edge="1" parent="1" source="5McXWvS48t8TQqjpAbrh-5" target="I2eKmvmDZ-53v4QzpKvG-106">
          <mxGeometry relative="1" as="geometry">
            <Array as="points">
              <mxPoint x="1359" y="330" />
              <mxPoint x="1540" y="330" />
              <mxPoint x="1540" y="150" />
              <mxPoint x="1674" y="150" />
            </Array>
          </mxGeometry>
        </mxCell>
      </root>
    </mxGraphModel>
  </diagram>
</mxfile>
